<?xml version='1.0' encoding='UTF-8'?>
<svg width="98mm" height="98mm" version="1.1" viewBox="0 0 98 98" xmlns="http://www.w3.org/2000/svg"><path d="M8,8H10V10H8zM10,8H12V10H10zM12,8H14V10H12zM14,8H16V10H14zM16,8H18V10H16zM18,8H20V10H18zM20,8H22V10H20zM24,8H26V10H24zM26,8H28V10H26zM38,8H40V10H38zM40,8H42V10H40zM42,8H44V10H42zM52,8H54V10H52zM54,8H56V10H54zM60,8H62V10H60zM62,8H64V10H62zM66,8H68V10H66zM68,8H70V10H68zM70,8H72V10H70zM72,8H74V10H72zM76,8H78V10H76zM78,8H80V10H78zM80,8H82V10H80zM82,8H84V10H82zM84,8H86V10H84zM86,8H88V10H86zM88,8H90V10H88zM8,10H10V12H8zM20,10H22V12H20zM28,10H30V12H28zM30,10H32V12H30zM32,10H34V12H32zM34,10H36V12H34zM40,10H42V12H40zM42,10H44V12H42zM44,10H46V12H44zM48,10H50V12H48zM50,10H52V12H50zM58,10H60V12H58zM62,10H64V12H62zM68,10H70V12H68zM70,10H72V12H70zM76,10H78V12H76zM88,10H90V12H88zM8,12H10V14H8zM12,12H14V14H12zM14,12H16V14H14zM16,12H18V14H16zM20,12H22V14H20zM28,12H30V14H28zM32,12H34V14H32zM34,12H36V14H34zM36,12H38V14H36zM40,12H42V14H40zM42,12H44V14H42zM52,12H54V14H52zM54,12H56V14H54zM66,12H68V14H66zM68,12H70V14H68zM70,12H72V14H70zM76,12H78V14H76zM80,12H82V14H80zM82,12H84V14H82zM84,12H86V14H84zM88,12H90V14H88zM8,14H10V16H8zM12,14H14V16H12zM14,14H16V16H14zM16,14H18V16H16zM20,14H22V16H20zM24,14H26V16H24zM28,14H30V16H28zM32,14H34V16H32zM34,14H36V16H34zM38,14H40V16H38zM44,14H46V16H44zM46,14H48V16H46zM54,14H56V16H54zM56,14H58V16H56zM58,14H60V16H58zM66,14H68V16H66zM68,14H70V16H68zM72,14H74V16H72zM76,14H78V16H76zM80,14H82V16H80zM82,14H84V16H82zM84,14H86V16H84zM88,14H90V16H88zM8,16H10V18H8zM12,16H14V18H12zM14,16H16V18H14zM16,16H18V18H16zM20,16H22V18H20zM34,16H36V18H34zM36,16H38V18H36zM42,16H44V18H42zM44,16H46V18H44zM62,16H64V18H62zM66,16H68V18H66zM68,16H70V18H68zM70,16H72V18H70zM76,16H78V18H76zM80,16H82V18H80zM82,16H84V18H82zM84,16H86V18H84zM88,16H90V18H88zM8,18H10V20H8zM20,18H22V20H20zM28,18H30V20H28zM30,18H32V20H30zM36,18H38V20H36zM42,18H44V20H42zM50,18H52V20H50zM52,18H54V20H52zM54,18H56V20H54zM60,18H62V20H60zM62,18H64V20H62zM66,18H68V20H66zM68,18H70V20H68zM70,18H72V20H70zM72,18H74V20H72zM76,18H78V20H76zM88,18H90V20H88zM8,20H10V22H8zM10,20H12V22H10zM12,20H14V22H12zM14,20H16V22H14zM16,20H18V22H16zM18,20H20V22H18zM20,20H22V22H20zM24,20H26V22H24zM28,20H30V22H28zM32,20H34V22H32zM36,20H38V22H36zM40,20H42V22H40zM44,20H46V22H44zM48,20H50V22H48zM52,20H54V22H52zM56,20H58V22H56zM60,20H62V22H60zM64,20H66V22H64zM68,20H70V22H68zM72,20H74V22H72zM76,20H78V22H76zM78,20H80V22H78zM80,20H82V22H80zM82,20H84V22H82zM84,20H86V22H84zM86,20H88V22H86zM88,20H90V22H88zM34,22H36V24H34zM44,22H46V24H44zM46,22H48V24H46zM48,22H50V24H48zM60,22H62V24H60zM64,22H66V24H64zM66,22H68V24H66zM68,22H70V24H68zM70,22H72V24H70zM12,24H14V26H12zM16,24H18V26H16zM18,24H20V26H18zM20,24H22V26H20zM24,24H26V26H24zM28,24H30V26H28zM30,24H32V26H30zM34,24H36V26H34zM38,24H40V26H38zM40,24H42V26H40zM44,24H46V26H44zM46,24H48V26H46zM48,24H50V26H48zM52,24H54V26H52zM58,24H60V26H58zM62,24H64V26H62zM64,24H66V26H64zM66,24H68V26H66zM70,24H72V26H70zM72,24H74V26H72zM74,24H76V26H74zM82,24H84V26H82zM88,24H90V26H88zM8,26H10V28H8zM12,26H14V28H12zM14,26H16V28H14zM18,26H20V28H18zM22,26H24V28H22zM24,26H26V28H24zM26,26H28V28H26zM32,26H34V28H32zM34,26H36V28H34zM38,26H40V28H38zM40,26H42V28H40zM42,26H44V28H42zM46,26H48V28H46zM48,26H50V28H48zM50,26H52V28H50zM54,26H56V28H54zM56,26H58V28H56zM64,26H66V28H64zM66,26H68V28H66zM72,26H74V28H72zM76,26H78V28H76zM82,26H84V28H82zM84,26H86V28H84zM86,26H88V28H86zM88,26H90V28H88zM12,28H14V30H12zM14,28H16V30H14zM16,28H18V30H16zM20,28H22V30H20zM22,28H24V30H22zM24,28H26V30H24zM34,28H36V30H34zM36,28H38V30H36zM42,28H44V30H42zM44,28H46V30H44zM46,28H48V30H46zM48,28H50V30H48zM52,28H54V30H52zM60,28H62V30H60zM64,28H66V30H64zM74,28H76V30H74zM78,28H80V30H78zM80,28H82V30H80zM84,28H86V30H84zM88,28H90V30H88zM14,30H16V32H14zM30,30H32V32H30zM32,30H34V32H32zM36,30H38V32H36zM52,30H54V32H52zM54,30H56V32H54zM58,30H60V32H58zM66,30H68V32H66zM72,30H74V32H72zM74,30H76V32H74zM76,30H78V32H76zM80,30H82V32H80zM86,30H88V32H86zM12,32H14V34H12zM16,32H18V34H16zM18,32H20V34H18zM20,32H22V34H20zM22,32H24V34H22zM24,32H26V34H24zM38,32H40V34H38zM40,32H42V34H40zM50,32H52V34H50zM52,32H54V34H52zM58,32H60V34H58zM64,32H66V34H64zM66,32H68V34H66zM70,32H72V34H70zM74,32H76V34H74zM78,32H80V34H78zM82,32H84V34H82zM88,32H90V34H88zM10,34H12V36H10zM18,34H20V36H18zM28,34H30V36H28zM32,34H34V36H32zM42,34H44V36H42zM44,34H46V36H44zM46,34H48V36H46zM48,34H50V36H48zM50,34H52V36H50zM54,34H56V36H54zM56,34H58V36H56zM62,34H64V36H62zM64,34H66V36H64zM70,34H72V36H70zM74,34H76V36H74zM78,34H80V36H78zM84,34H86V36H84zM86,34H88V36H86zM88,34H90V36H88zM10,36H12V38H10zM12,36H14V38H12zM20,36H22V38H20zM26,36H28V38H26zM34,36H36V38H34zM38,36H40V38H38zM42,36H44V38H42zM44,36H46V38H44zM46,36H48V38H46zM50,36H52V38H50zM56,36H58V38H56zM58,36H60V38H58zM60,36H62V38H60zM62,36H64V38H62zM64,36H66V38H64zM76,36H78V38H76zM80,36H82V38H80zM84,36H86V38H84zM88,36H90V38H88zM10,38H12V40H10zM22,38H24V40H22zM26,38H28V40H26zM30,38H32V40H30zM32,38H34V40H32zM36,38H38V40H36zM38,38H40V40H38zM52,38H54V40H52zM56,38H58V40H56zM58,38H60V40H58zM64,38H66V40H64zM66,38H68V40H66zM68,38H70V40H68zM70,38H72V40H70zM76,38H78V40H76zM78,38H80V40H78zM82,38H84V40H82zM88,38H90V40H88zM14,40H16V42H14zM18,40H20V42H18zM20,40H22V42H20zM22,40H24V42H22zM24,40H26V42H24zM26,40H28V42H26zM36,40H38V42H36zM42,40H44V42H42zM44,40H46V42H44zM48,40H50V42H48zM52,40H54V42H52zM58,40H60V42H58zM62,40H64V42H62zM64,40H66V42H64zM66,40H68V42H66zM72,40H74V42H72zM76,40H78V42H76zM78,40H80V42H78zM86,40H88V42H86zM8,42H10V44H8zM12,42H14V44H12zM22,42H24V44H22zM24,42H26V44H24zM26,42H28V44H26zM28,42H30V44H28zM32,42H34V44H32zM36,42H38V44H36zM44,42H46V44H44zM48,42H50V44H48zM52,42H54V44H52zM58,42H60V44H58zM64,42H66V44H64zM66,42H68V44H66zM68,42H70V44H68zM72,42H74V44H72zM76,42H78V44H76zM84,42H86V44H84zM86,42H88V44H86zM88,42H90V44H88zM8,44H10V46H8zM20,44H22V46H20zM24,44H26V46H24zM28,44H30V46H28zM34,44H36V46H34zM36,44H38V46H36zM38,44H40V46H38zM40,44H42V46H40zM44,44H46V46H44zM54,44H56V46H54zM58,44H60V46H58zM68,44H70V46H68zM74,44H76V46H74zM76,44H78V46H76zM80,44H82V46H80zM82,44H84V46H82zM86,44H88V46H86zM88,44H90V46H88zM10,46H12V48H10zM12,46H14V48H12zM14,46H16V48H14zM16,46H18V48H16zM24,46H26V48H24zM26,46H28V48H26zM30,46H32V48H30zM36,46H38V48H36zM38,46H40V48H38zM40,46H42V48H40zM48,46H50V48H48zM50,46H52V48H50zM52,46H54V48H52zM56,46H58V48H56zM62,46H64V48H62zM66,46H68V48H66zM68,46H70V48H68zM70,46H72V48H70zM76,46H78V48H76zM78,46H80V48H78zM86,46H88V48H86zM8,48H10V50H8zM20,48H22V50H20zM24,48H26V50H24zM26,48H28V50H26zM28,48H30V50H28zM30,48H32V50H30zM34,48H36V50H34zM36,48H38V50H36zM46,48H48V50H46zM48,48H50V50H48zM54,48H56V50H54zM56,48H58V50H56zM62,48H64V50H62zM64,48H66V50H64zM68,48H70V50H68zM72,48H74V50H72zM76,48H78V50H76zM78,48H80V50H78zM80,48H82V50H80zM82,48H84V50H82zM86,48H88V50H86zM14,50H16V52H14zM16,50H18V52H16zM18,50H20V52H18zM32,50H34V52H32zM34,50H36V52H34zM40,50H42V52H40zM42,50H44V52H42zM46,50H48V52H46zM52,50H54V52H52zM54,50H56V52H54zM56,50H58V52H56zM58,50H60V52H58zM66,50H68V52H66zM68,50H70V52H68zM72,50H74V52H72zM74,50H76V52H74zM76,50H78V52H76zM78,50H80V52H78zM84,50H86V52H84zM86,50H88V52H86zM88,50H90V52H88zM8,52H10V54H8zM20,52H22V54H20zM22,52H24V54H22zM28,52H30V54H28zM30,52H32V54H30zM32,52H34V54H32zM42,52H44V54H42zM44,52H46V54H44zM46,52H48V54H46zM50,52H52V54H50zM64,52H66V54H64zM76,52H78V54H76zM78,52H80V54H78zM80,52H82V54H80zM82,52H84V54H82zM86,52H88V54H86zM88,52H90V54H88zM8,54H10V56H8zM10,54H12V56H10zM12,54H14V56H12zM14,54H16V56H14zM16,54H18V56H16zM22,54H24V56H22zM26,54H28V56H26zM28,54H30V56H28zM30,54H32V56H30zM32,54H34V56H32zM34,54H36V56H34zM38,54H40V56H38zM54,54H56V56H54zM58,54H60V56H58zM66,54H68V56H66zM68,54H70V56H68zM72,54H74V56H72zM74,54H76V56H74zM78,54H80V56H78zM82,54H84V56H82zM86,54H88V56H86zM88,54H90V56H88zM8,56H10V58H8zM10,56H12V58H10zM12,56H14V58H12zM14,56H16V58H14zM20,56H22V58H20zM22,56H24V58H22zM24,56H26V58H24zM26,56H28V58H26zM34,56H36V58H34zM40,56H42V58H40zM42,56H44V58H42zM50,56H52V58H50zM54,56H56V58H54zM58,56H60V58H58zM60,56H62V58H60zM64,56H66V58H64zM66,56H68V58H66zM72,56H74V58H72zM74,56H76V58H74zM76,56H78V58H76zM84,56H86V58H84zM86,56H88V58H86zM8,58H10V60H8zM10,58H12V60H10zM12,58H14V60H12zM14,58H16V60H14zM16,58H18V60H16zM24,58H26V60H24zM34,58H36V60H34zM40,58H42V60H40zM42,58H44V60H42zM46,58H48V60H46zM48,58H50V60H48zM54,58H56V60H54zM64,58H66V60H64zM74,58H76V60H74zM76,58H78V60H76zM88,58H90V60H88zM10,60H12V62H10zM20,60H22V62H20zM22,60H24V62H22zM24,60H26V62H24zM36,60H38V62H36zM38,60H40V62H38zM40,60H42V62H40zM44,60H46V62H44zM48,60H50V62H48zM52,60H54V62H52zM54,60H56V62H54zM64,60H66V62H64zM68,60H70V62H68zM76,60H78V62H76zM78,60H80V62H78zM80,60H82V62H80zM84,60H86V62H84zM86,60H88V62H86zM88,60H90V62H88zM8,62H10V64H8zM10,62H12V64H10zM22,62H24V64H22zM24,62H26V64H24zM26,62H28V64H26zM30,62H32V64H30zM34,62H36V64H34zM42,62H44V64H42zM44,62H46V64H44zM54,62H56V64H54zM58,62H60V64H58zM60,62H62V64H60zM62,62H64V64H62zM64,62H66V64H64zM66,62H68V64H66zM72,62H74V64H72zM78,62H80V64H78zM8,64H10V66H8zM14,64H16V66H14zM16,64H18V66H16zM20,64H22V66H20zM24,64H26V66H24zM26,64H28V66H26zM28,64H30V66H28zM30,64H32V66H30zM34,64H36V66H34zM38,64H40V66H38zM40,64H42V66H40zM44,64H46V66H44zM48,64H50V66H48zM50,64H52V66H50zM54,64H56V66H54zM56,64H58V66H56zM58,64H60V66H58zM60,64H62V66H60zM66,64H68V66H66zM70,64H72V66H70zM72,64H74V66H72zM76,64H78V66H76zM78,64H80V66H78zM82,64H84V66H82zM88,64H90V66H88zM10,66H12V68H10zM22,66H24V68H22zM26,66H28V68H26zM30,66H32V68H30zM38,66H40V68H38zM46,66H48V68H46zM54,66H56V68H54zM62,66H64V68H62zM66,66H68V68H66zM68,66H70V68H68zM70,66H72V68H70zM72,66H74V68H72zM78,66H80V68H78zM84,66H86V68H84zM86,66H88V68H86zM88,66H90V68H88zM8,68H10V70H8zM12,68H14V70H12zM16,68H18V70H16zM18,68H20V70H18zM20,68H22V70H20zM22,68H24V70H22zM26,68H28V70H26zM30,68H32V70H30zM34,68H36V70H34zM38,68H40V70H38zM40,68H42V70H40zM42,68H44V70H42zM44,68H46V70H44zM46,68H48V70H46zM50,68H52V70H50zM52,68H54V70H52zM68,68H70V70H68zM70,68H72V70H70zM72,68H74V70H72zM80,68H82V70H80zM82,68H84V70H82zM84,68H86V70H84zM86,68H88V70H86zM88,68H90V70H88zM10,70H12V72H10zM16,70H18V72H16zM18,70H20V72H18zM22,70H24V72H22zM24,70H26V72H24zM26,70H28V72H26zM34,70H36V72H34zM40,70H42V72H40zM48,70H50V72H48zM50,70H52V72H50zM52,70H54V72H52zM54,70H56V72H54zM56,70H58V72H56zM62,70H64V72H62zM66,70H68V72H66zM72,70H74V72H72zM74,70H76V72H74zM76,70H78V72H76zM78,70H80V72H78zM82,70H84V72H82zM8,72H10V74H8zM12,72H14V74H12zM20,72H22V74H20zM26,72H28V74H26zM36,72H38V74H36zM38,72H40V74H38zM40,72H42V74H40zM42,72H44V74H42zM46,72H48V74H46zM48,72H50V74H48zM50,72H52V74H50zM52,72H54V74H52zM54,72H56V74H54zM56,72H58V74H56zM60,72H62V74H60zM64,72H66V74H64zM66,72H68V74H66zM70,72H72V74H70zM72,72H74V74H72zM74,72H76V74H74zM76,72H78V74H76zM78,72H80V74H78zM80,72H82V74H80zM82,72H84V74H82zM24,74H26V76H24zM26,74H28V76H26zM28,74H30V76H28zM30,74H32V76H30zM32,74H34V76H32zM34,74H36V76H34zM42,74H44V76H42zM44,74H46V76H44zM48,74H50V76H48zM56,74H58V76H56zM58,74H60V76H58zM60,74H62V76H60zM64,74H66V76H64zM70,74H72V76H70zM72,74H74V76H72zM80,74H82V76H80zM82,74H84V76H82zM86,74H88V76H86zM88,74H90V76H88zM8,76H10V78H8zM10,76H12V78H10zM12,76H14V78H12zM14,76H16V78H14zM16,76H18V78H16zM18,76H20V78H18zM20,76H22V78H20zM26,76H28V78H26zM28,76H30V78H28zM30,76H32V78H30zM34,76H36V78H34zM38,76H40V78H38zM44,76H46V78H44zM48,76H50V78H48zM50,76H52V78H50zM54,76H56V78H54zM64,76H66V78H64zM66,76H68V78H66zM70,76H72V78H70zM72,76H74V78H72zM76,76H78V78H76zM80,76H82V78H80zM86,76H88V78H86zM88,76H90V78H88zM8,78H10V80H8zM20,78H22V80H20zM24,78H26V80H24zM28,78H30V80H28zM36,78H38V80H36zM40,78H42V80H40zM42,78H44V80H42zM44,78H46V80H44zM46,78H48V80H46zM50,78H52V80H50zM52,78H54V80H52zM54,78H56V80H54zM60,78H62V80H60zM62,78H64V80H62zM72,78H74V80H72zM80,78H82V80H80zM8,80H10V82H8zM12,80H14V82H12zM14,80H16V82H14zM16,80H18V82H16zM20,80H22V82H20zM24,80H26V82H24zM26,80H28V82H26zM30,80H32V82H30zM32,80H34V82H32zM44,80H46V82H44zM50,80H52V82H50zM52,80H54V82H52zM54,80H56V82H54zM58,80H60V82H58zM60,80H62V82H60zM62,80H64V82H62zM64,80H66V82H64zM72,80H74V82H72zM74,80H76V82H74zM76,80H78V82H76zM78,80H80V82H78zM80,80H82V82H80zM88,80H90V82H88zM8,82H10V84H8zM12,82H14V84H12zM14,82H16V84H14zM16,82H18V84H16zM20,82H22V84H20zM26,82H28V84H26zM28,82H30V84H28zM34,82H36V84H34zM38,82H40V84H38zM40,82H42V84H40zM46,82H48V84H46zM48,82H50V84H48zM52,82H54V84H52zM54,82H56V84H54zM60,82H62V84H60zM64,82H66V84H64zM66,82H68V84H66zM70,82H72V84H70zM74,82H76V84H74zM80,82H82V84H80zM84,82H86V84H84zM86,82H88V84H86zM88,82H90V84H88zM8,84H10V86H8zM12,84H14V86H12zM14,84H16V86H14zM16,84H18V86H16zM20,84H22V86H20zM24,84H26V86H24zM28,84H30V86H28zM32,84H34V86H32zM44,84H46V86H44zM50,84H52V86H50zM54,84H56V86H54zM56,84H58V86H56zM60,84H62V86H60zM68,84H70V86H68zM78,84H80V86H78zM80,84H82V86H80zM88,84H90V86H88zM8,86H10V88H8zM20,86H22V88H20zM26,86H28V88H26zM28,86H30V88H28zM30,86H32V88H30zM36,86H38V88H36zM40,86H42V88H40zM48,86H50V88H48zM54,86H56V88H54zM56,86H58V88H56zM58,86H60V88H58zM60,86H62V88H60zM62,86H64V88H62zM64,86H66V88H64zM66,86H68V88H66zM68,86H70V88H68zM70,86H72V88H70zM72,86H74V88H72zM76,86H78V88H76zM78,86H80V88H78zM84,86H86V88H84zM86,86H88V88H86zM8,88H10V90H8zM10,88H12V90H10zM12,88H14V90H12zM14,88H16V90H14zM16,88H18V90H16zM18,88H20V90H18zM20,88H22V90H20zM28,88H30V90H28zM30,88H32V90H30zM38,88H40V90H38zM42,88H44V90H42zM46,88H48V90H46zM48,88H50V90H48zM50,88H52V90H50zM54,88H56V90H54zM58,88H60V90H58zM66,88H68V90H66zM70,88H72V90H70zM72,88H74V90H72zM78,88H80V90H78zM80,88H82V90H80zM84,88H86V90H84zM86,88H88V90H86zM88,88H90V90H88z" id="qr-path" fill="#000000" fill-opacity="1" fill-rule="nonzero" stroke="none" /></svg>